<svg width="61" height="67" viewBox="0 0 61 67" fill="none" xmlns="http://www.w3.org/2000/svg">
<g id="noun-swipe-up-135683">
<path id="&#232;&#183;&#175;&#229;&#190;&#132;" d="M60.9035 31.0166V31.0166C60.0472 29.6101 58.8568 28.6139 57.556 28.1453C56.2594 27.6752 54.8303 27.7525 53.627 28.5006C53.6035 28.5151 53.5837 28.5332 53.5627 28.5501C53.5543 28.5548 53.5454 28.5575 53.537 28.5625C52.5636 29.1654 51.8818 30.0587 51.5724 31.0396C51.4843 31.3176 51.4283 31.6046 51.4042 31.8938C51.1377 31.7846 50.8587 31.7051 50.573 31.6584C49.5661 31.492 48.4677 31.7009 47.494 32.3031C47.4626 32.3225 47.435 32.3456 47.408 32.3691C47.3752 32.3826 47.3427 32.3969 47.3115 32.4162C46.3383 33.0189 45.6561 33.9122 45.347 34.8931C45.3347 34.9322 45.324 34.9714 45.3128 35.0108L37.3484 22.4549C37.3483 22.4548 37.3481 22.4546 37.3481 22.4545C36.6422 21.3428 35.626 20.5656 34.5224 20.2113C33.4224 19.8565 32.2119 19.9327 31.1989 20.5605C31.1801 20.5722 31.1587 20.5855 31.1343 20.6015L31.1345 20.6016C30.1862 21.2145 29.4929 22.1332 29.2186 23.2035C29.1348 23.5264 29.0919 23.8625 29.0905 24.2048C28.7842 24.0336 28.4646 23.8986 28.1374 23.8032C27.0475 23.4836 25.8634 23.604 24.8671 24.2219C24.8472 24.2342 24.8243 24.2487 24.798 24.2658L24.7981 24.2661C23.8 24.9116 23.2084 25.9718 23.0478 27.1165C22.8981 28.1734 23.0995 29.3163 23.6592 30.3608C23.6732 30.397 23.6892 30.4327 23.71 30.4669L32.6837 45.2196C32.0541 45.9351 31.7195 46.8829 31.5812 47.9387C31.3678 49.6046 31.6231 51.5829 32.1834 53.5987C32.7461 55.6128 33.6204 57.6583 34.6909 59.4197C35.1183 60.1221 35.5774 60.7791 36.063 61.371C36.0636 61.3716 36.0639 61.3724 36.0643 61.373C37.8906 63.5957 39.8171 65.2154 41.603 66.1395C42.4974 66.6005 43.3588 66.8897 44.1727 66.975C44.983 67.0598 45.7623 66.9334 46.413 66.5302C46.7201 66.3403 46.8167 65.9347 46.628 65.6244C46.4392 65.3143 46.0372 65.2171 45.7299 65.4074C45.3759 65.6262 44.9096 65.7255 44.306 65.6643C43.4046 65.5739 42.2338 65.0968 40.9769 64.2292C39.7187 63.3637 38.3712 62.1177 37.0709 60.5332C37.0707 60.5329 37.0706 60.5328 37.0704 60.5325C36.6294 59.9955 36.2038 59.3874 35.8043 58.7307C34.4684 56.5377 33.4334 53.8016 33.0178 51.3797C32.8085 50.1699 32.7548 49.0392 32.8763 48.1096C32.9655 47.4167 33.1515 46.8474 33.4145 46.4204L40.3923 57.8918C40.5808 58.2018 40.9828 58.2988 41.2902 58.1087C41.5977 57.9185 41.6938 57.5128 41.5053 57.2029L24.9697 30.0197L24.9723 30.0179C24.9565 29.9933 24.942 29.9695 24.9276 29.9461C24.402 29.0834 24.2222 28.1304 24.3405 27.3041C24.4609 26.4751 24.8615 25.7901 25.5069 25.3726L25.1639 24.8319L25.5117 25.3695C25.521 25.3633 25.5339 25.3551 25.55 25.3452C26.2182 24.9329 27.0012 24.846 27.7747 25.0692C28.5452 25.2937 29.2962 25.8353 29.8416 26.6935C29.842 26.6943 29.8426 26.6951 29.8431 26.6959V26.6959L38.659 41.1892C38.8476 41.4993 39.2495 41.5963 39.5569 41.4061C39.8644 41.216 39.9605 40.8103 39.7721 40.5004L30.9495 25.9963C30.9473 25.9926 30.9443 25.99 30.9419 25.9863L30.9428 25.9857C30.9428 25.9857 30.9428 25.9857 30.9428 25.9855H30.9429C30.9281 25.9624 30.9145 25.9405 30.9017 25.9195C30.388 25.0686 30.2998 24.2594 30.4827 23.5335C30.668 22.8092 31.1453 22.1593 31.8426 21.7086L31.4847 21.1441L31.8476 21.7055C31.8558 21.7002 31.8671 21.6928 31.8818 21.6839C32.5351 21.2803 33.3277 21.2135 34.1269 21.4674C34.9228 21.7216 35.7021 22.3039 36.2479 23.1657H36.2481L45.6354 37.9643C45.8278 38.2675 46.2245 38.3582 46.5271 38.171C46.5305 38.1687 46.5339 38.1665 46.5374 38.1643C46.6616 38.0842 46.7476 37.968 46.7951 37.8386C46.9007 37.639 46.9039 37.3912 46.7781 37.1843C46.4403 36.6271 46.3835 35.961 46.5916 35.2924C46.8003 34.6267 47.2809 33.9806 47.9941 33.5396C48.025 33.5205 48.0522 33.4977 48.0789 33.4745C48.1122 33.4608 48.1452 33.4463 48.1769 33.4266C48.8893 32.985 49.6782 32.8452 50.3613 32.9589C50.899 33.05 51.36 33.2891 51.6985 33.6561C51.7545 33.7797 51.8181 33.9013 51.8904 34.0199C52.0789 34.33 52.4812 34.4272 52.7886 34.2371C52.7986 34.2309 52.8067 34.2224 52.8162 34.2158C52.8262 34.2103 52.8369 34.2069 52.8467 34.2008C53.1542 34.0106 53.2505 33.6047 53.0619 33.2947C52.99 33.1761 52.9115 33.0639 52.8275 32.9575C52.6561 32.4869 52.6535 31.964 52.8168 31.4386C53.0257 30.7731 53.5065 30.1267 54.2197 29.6859C54.2429 29.6716 54.2626 29.6538 54.2834 29.6371C54.2922 29.6322 54.3013 29.6294 54.31 29.6242C55.1573 29.1031 56.1308 29.037 57.1173 29.3869C58.0998 29.7388 59.0733 30.527 59.79 31.7064C59.9785 32.0164 60.3807 32.1137 60.6882 31.9235C60.9959 31.7325 61.0921 31.3268 60.9035 31.0166Z" fill="black"/>
<path id="&#232;&#183;&#175;&#229;&#190;&#132;_2" d="M28 23.9425V7.05751C28 6.47347 28.4477 6 28.9999 6V6C29.5523 6 30 6.47347 30 7.05751V7.05751V23.9425C30 24.5265 29.5523 25 28.9999 25V25C28.4477 25 28 24.5265 28 23.9425V23.9425Z" fill="black"/>
<path id="&#232;&#183;&#175;&#229;&#190;&#132;_3" d="M24.3886 12.8006C23.9641 12.4656 23.8733 11.8253 24.1861 11.3703V11.3703L28.2768 5.4164C28.5894 4.96158 29.1869 4.86428 29.6114 5.1993V5.1993C30.0359 5.53418 30.1266 6.17468 29.8141 6.62978V6.62978L25.7232 12.5835C25.5361 12.8558 25.2469 13 24.9538 13V13C24.7575 13 24.5591 12.9351 24.3886 12.8006V12.8006Z" fill="black"/>
<path id="&#232;&#183;&#175;&#229;&#190;&#132;_4" d="M32.1934 12.5609L28.1777 6.60717C27.8649 6.14326 27.9759 5.5058 28.4257 5.18317V5.18317C28.8756 4.86069 29.4939 4.97515 29.8068 5.43891V5.43891L33.8222 11.3928C34.1352 11.8568 34.0241 12.4941 33.5743 12.8168V12.8168C33.4016 12.9406 33.2043 13 33.0087 13V13C32.695 12.9999 32.3862 12.8466 32.1934 12.5609V12.5609Z" fill="black"/>
<path id="&#229;&#189;&#162;&#231;&#138;&#182;" fill-rule="evenodd" clip-rule="evenodd" d="M52.2764 0H2.7236C1.21851 0 0 1.20713 0 2.69799V32.3019C0 33.7927 1.21851 34.9999 2.7236 34.9999V35H27.3867V34.1006H2.7236C1.71956 34.0988 0.909706 33.2965 0.907915 32.3019V2.69799C0.909706 1.70349 1.71956 0.901204 2.72375 0.89943H52.2764C53.2804 0.901352 54.0903 1.70349 54.0921 2.69814V28.6296H55V2.69814C55.0001 1.20713 53.7815 0 52.2764 0ZM46.8053 35H45.1653V34.1006H46.8053V35Z" fill="black"/>
</g>
</svg>
