<svg width="108" height="24" viewBox="0 0 108 24" fill="none" xmlns="http://www.w3.org/2000/svg">
<g id="logo/xreal" clip-path="url(#clip0_3341_19914)">
<g id="Group">
<path id="Vector" d="M23.788 0H16.9342L11.9647 7.06575L6.97154 0H0.117762L8.526 11.9176L0 24H6.85378L11.9647 16.7694L17.0756 24H23.9058L15.3798 11.9176L23.788 0Z" fill="white"/>
<path id="Vector_2" d="M47.2227 24H64.9106V18.4652H52.7575V14.3435H63.8272V9.60942H52.7575V5.53484H64.9106V0H47.2227V24Z" fill="white"/>
<path id="Vector_3" d="M96.612 18.4652V0H91.0771V24H107.116V18.4652H96.612Z" fill="white"/>
<path id="Vector_4" d="M74.6615 0L65.9941 24H71.9294L73.0128 20.9617H82.9284L84.0118 24H89.947L81.3268 0H74.6615ZM74.7321 16.2512L77.9824 7.18351L81.2562 16.2512H74.7321Z" fill="white"/>
<path id="Vector_5" d="M44.9852 9.51521C45.0559 9.06771 45.0794 8.59666 45.0794 8.12561C45.0794 7.65456 45.0559 7.18351 44.9852 6.73602C44.4435 2.84985 41.1226 0.09421 37.1893 0C37.0245 0 36.6947 0 36.5299 0H25.0362H25.0127V24H30.5475V16.2277H33.7507L39.3091 24H46.1628L40.2041 15.6389C42.6771 14.6261 44.6084 12.3415 44.9852 9.51521ZM39.5681 8.36114C39.4975 9.65653 38.3905 10.6693 37.0951 10.6693H31.5132H30.5475V5.53484H31.5132H37.0951C38.4141 5.53484 39.4975 6.5476 39.5681 7.84298C39.5681 7.93719 39.5681 8.00785 39.5681 8.10206C39.5681 8.19627 39.5681 8.29048 39.5681 8.36114Z" fill="white"/>
</g>
</g>
<defs>
<clipPath id="clip0_3341_19914">
<rect width="107.117" height="24" fill="white"/>
</clipPath>
</defs>
</svg>
