<svg width="28" height="28" viewBox="0 0 28 28" fill="none" xmlns="http://www.w3.org/2000/svg">
<g id="icon /  Lined / user">
<g id="Vector">
<path d="M13.9993 15.6349C16.8475 15.6349 19.3387 16.8599 20.6936 18.6877L18.8881 19.7733C17.7852 18.4667 16.2136 17.8163 13.9993 17.8163C11.7849 17.8163 10.2133 18.4667 9.11042 19.7733L7.30573 18.6869C8.66061 16.8591 11.1511 15.6349 13.9993 15.6349Z" fill="white"/>
<path d="M17.1108 10.9643C17.1108 12.6825 15.7179 14.0754 13.9997 14.0754C12.2815 14.0754 10.8886 12.6825 10.8886 10.9643C10.8886 9.24611 12.2815 7.85322 13.9997 7.85322C15.7179 7.85322 17.1108 9.24611 17.1108 10.9643Z" fill="white"/>
<path fill-rule="evenodd" clip-rule="evenodd" d="M13.9997 23.333C19.1543 23.333 23.333 19.1543 23.333 13.9997C23.333 8.84502 19.1543 4.66634 13.9997 4.66634C8.84502 4.66634 4.66634 8.84502 4.66634 13.9997C4.66634 19.1543 8.84502 23.333 13.9997 23.333ZM13.9997 25.6663C20.443 25.6663 25.6663 20.443 25.6663 13.9997C25.6663 7.55635 20.443 2.33301 13.9997 2.33301C7.55635 2.33301 2.33301 7.55635 2.33301 13.9997C2.33301 20.443 7.55635 25.6663 13.9997 25.6663Z" fill="white"/>
</g>
</g>
</svg>
