<svg width="800" height="180" viewBox="0 0 800 180" fill="none"
    xmlns="http://www.w3.org/2000/svg">
    <g clip-path="url(#clip0_3252_33019)">
        <path d="M177.66 0H126.473L89.358 52.7705L52.0668 0H0.879507L63.6763 89.0062L0 179.244H51.1873L89.358 125.242L127.529 179.244H178.54L114.864 89.0062L177.66 0Z" fill="#FF3300" />
        <path d="M352.68 179.244H484.782V137.907H394.017V107.124H476.69V71.7678H394.017V41.3369H484.782V0H352.68V179.244Z" fill="#FF3300" />
        <path d="M721.548 137.907V0H680.211V179.244H800V137.907H721.548Z" fill="#FF3300" />
        <path d="M557.607 0L492.875 179.244H537.202L545.294 156.552H619.348L627.44 179.244H671.767L607.387 0H557.607ZM558.134 121.372L582.409 53.65L606.859 121.372H558.134Z" fill="#FF3300" />
        <path d="M335.969 71.0642C336.497 67.7221 336.673 64.2041 336.673 60.686C336.673 57.168 336.497 53.65 335.969 50.3078C331.923 21.2841 307.121 0.703606 277.746 0C276.514 0 274.052 0 272.821 0H186.981H186.805V179.244H228.142V121.196H252.064L293.577 179.244H344.764L300.261 116.799C318.731 109.235 333.155 92.1724 335.969 71.0642ZM295.512 62.445C294.984 72.1196 286.717 79.6834 277.042 79.6834H235.354H228.142V41.3369H235.354H277.042C286.893 41.3369 294.984 48.9006 295.512 58.5752C295.512 59.2788 295.512 59.8065 295.512 60.5101C295.512 61.2137 295.512 61.9173 295.512 62.445Z" fill="#FF3300" />
    </g>
    <defs>
        <clipPath id="clip0_3252_33019">
            <rect width="800" height="179.244" fill="white" />
        </clipPath>
    </defs>
</svg>